# xmcd
#
# Track frame offsets:
#	150
#	22273
#	35288
#	50891
#	67144
#	83744
#	97703
#	115755
#	135837
#	152547
#	170683
#	185469
#
# Disc length: 2717 seconds
#
# Revision: 0
# Processed by: cddbd v1.5.2PL0 Copyright (c) Steve Scherf et al.
# Submitted via: audiograbber 1.83.01
#
DISCID=970a9b0c
DTITLE=Alabama - Forever Alabama - Collector's Edition [CD 2)
DYEAR=2007
DGENRE=Country
TTITLE0=Pass It On Down
TTITLE1=Here We Are
TTITLE2=Down Home
TTITLE3=Forever's As Far As I'll Go
TTITLE4=Jukebox In My Mind
TTITLE5=Moonlight Lounge
TTITLE6=Goodbye (Kelly's Song)
TTITLE7=Fire On Fire
TTITLE8=Until It Happens To You
TTITLE9=Gulf Of Mexico
TTITLE10=Starting Tonight
TTITLE11=I Ain't Got No Business Doin' Business Today
EXTD=
EXTT0=
EXTT1=
EXTT2=
EXTT3=
EXTT4=
EXTT5=
EXTT6=
EXTT7=
EXTT8=
EXTT9=
EXTT10=
EXTT11=
PLAYORDER=
